<?xml version="1.0" standalone="no"?><!DOCTYPE svg PUBLIC "-//W3C//DTD SVG 1.1//EN" "http://www.w3.org/Graphics/SVG/1.1/DTD/svg11.dtd"><svg t="1699155533552" class="icon" viewBox="0 0 1024 1024" version="1.1" xmlns="http://www.w3.org/2000/svg" p-id="4668" xmlns:xlink="http://www.w3.org/1999/xlink" width="200" height="200"><path d="M768.932 136.366c-515.896-249.088-666.58 165.278-666.58 165.278l56.812 194.902 209.246 70.262 364.648-122.576c-0.002 0.002 378.116-142.62 35.874-307.866z" fill="#739B3A" p-id="4669"></path><path d="M433.938 117.804c40.842-28.782 81.25-52.03 91.218-57.686-27.344-3.156-53.094-4.062-77.342-3.032-12 7.718-25 16.376-38.156 25.624-28.968 20.406-52.686 39.562-70.436 56.968-18.718 18.312-31.062 34.904-37.436 50.28-0.312 0.656-0.562 1.344-0.812 2.032-1.624 4.282-2.812 8.468-3.532 12.562-9.532 55.374 21.624 85.998 49.092 113.06 11 10.842 22.406 22.062 31.25 34.748 6.094 8.718 4.656 13.594 4.124 15.438-3.624 12.532-24.218 24.718-33.562 28.624-10.906 4.468-16.124 16.938-11.624 27.842 3.376 8.25 11.344 13.218 19.718 13.218 2.718 0 5.468-0.5 8.124-1.594 4.874-2 47.842-20.592 58.28-56.03 3.532-12 4.656-30.78-10.062-51.906-11.124-15.936-23.936-28.562-36.312-40.75-26.342-25.906-40.624-41.5-37.78-69.654 55.186-8.25 129.31-11.968 193.31 10.094 40.966 14.124 58.624 32.436 58.81 32.624l-0.156-0.156 31.624-28.654c-3.124-3.438-72.81-77.624-253.994-60.532 0.25-0.218 0.468-0.438 0.688-0.688 16.062-15.746 37.936-33.402 64.966-52.432z" opacity=".1" p-id="4670"></path><path d="M899.43 128.304c-103.594-14.344-231.684 20.936-278.808 77.56-47.124 56.624-85.028 134.622-126.778 168.558-41.75 33.968-119.466 41.344-119.466 41.344l-17.936 249.698L779.4 643.026l156.186-286.574c-0.002 0.002 67.434-213.774-36.156-228.148z" fill="#81AF46" p-id="4671"></path><path d="M622.496 541.48c-7.594 0-14.968-4.062-18.812-11.218-5.594-10.344-1.718-23.31 8.656-28.872 110-59.344 183.246-260.776 183.964-262.808 3.968-11.092 16.188-16.842 27.282-12.874s16.876 16.156 12.906 27.25c-3.188 8.906-79.466 218.87-203.902 285.96a21.068 21.068 0 0 1-10.094 2.562z" opacity=".1" p-id="4672"></path><path d="M596.558 485.108c-186.588 48.31-244.586 149.356-244.586 149.356s-83.498 414.3 340.744 299.992c424.24-114.278 344.242-661.938 278.898-639.094-117.996 41.28-188.466 141.434-375.056 189.746z" fill="#8CC153" p-id="4673"></path><path d="M545.124 862.836c-8.562 0-16.688-5.218-19.906-13.718-4.218-11.032 1.312-23.344 12.312-27.562 51.498-19.656 132.684-67.688 226.87-184.746 57.186-71.062 92.124-134.418 92.466-135.076 5.656-10.312 18.624-14.094 28.968-8.438 10.312 5.656 14.124 18.624 8.468 28.934-1.468 2.688-36.782 66.766-96.156 140.704-80.558 100.278-163.122 167.058-245.4 198.496a21.734 21.734 0 0 1-7.622 1.406z" opacity=".1" p-id="4674"></path><path d="M436.75 450.39c-186.528-159.34-398.022-183.996-415.492-105.81-90.716 405.38 111.874 656.97 552.926 618.97 441.024-38 111.124-300.804-137.434-513.16z" fill="#A0D468" p-id="4675"></path><path d="M608.746 959.426c-72.184-27.594-140.902-70.124-204.212-126.372-51-45.344-98.624-99.624-141.59-161.402-73.53-105.718-108.216-197.826-108.56-198.732-4.094-11.032-16.376-16.656-27.406-12.562-11.062 4.094-16.688 16.376-12.562 27.438 1.438 3.906 36.5 97.2 112.81 207.228 44.906 64.718 94.84 121.718 148.402 169.434 46.156 41.062 95.092 75.312 146.186 102.282a1032.624 1032.624 0 0 0 52.374-3.188 903.852 903.852 0 0 0 35.404-3.75l-0.846-0.376z" opacity=".1" p-id="4676"></path></svg>